Patient4_TMGait_0pt4_01_right_25_EMG.mot
version=1
nRows=13
nColumns=33
inDegrees=no
endheader
time	1LAddLong	2LGlutMax	3LGlutMed	4LIliopsoas	5LSemiMemb	6LBicFemLong	7LRecFem	8LVastMed	9LVastLat	10LGasMed	11LTibAnt	12lTibPost	13LPeroneusLong	14LSol	15LExtDigLong	16LFlexDigLong	17RAddLong	18RGlutMax	19RGlutMed	20RIliopsoas	21RSemiMemb	22RBicFemLong	23RRecFem	24RVastMed	25RVastLat	26RGasMed	27RTibAnt	28RTibPost	29RPeroneusLong	30RSol	31RExtDigLong	32RFlexDigLong
33.533	0.009308	-0.020905	-0.042419	0.005646	0.013885	-0.046082	0.099182	0.003967	0.022888	-0.080109	0.010071	-0.35797	-0.007629	-0.39047	0.00946	0.04364	0.012817	-0.0737	-0.13519	-0.028076	-0.24414	0.25314	-0.003204	-0.095978	0.002289	0.002441	0.043488	-0.004425	0.121	-0.007324	0.001526	-0.008545
33.534	0.012512	-0.023956	-0.079346	0.012817	0.024414	-0.024414	0.14648	0.005951	-0.086365	-0.047302	0.014648	-0.16693	-0.1001	-0.21378	-0.010681	0.029297	-0.00351	-0.030212	0.72418	0.022583	-0.13473	0.23056	-0.006866	-0.072174	0.007477	-0.002594	-0.000305	-0.006866	0.14633	0.011902	-0.001984	-0.020142
33.535	0.03067	-0.044708	-0.093231	0.020447	-0.002136	-0.016022	0.15228	0.003662	-0.077209	0.083771	0.007172	0.042572	-0.17654	0.11017	-0.016327	0.13657	0.005798	-0.092926	0.71198	-0.016937	0.10681	0.17334	-0.043945	-0.066376	0	0.00946	-0.10727	-0.014954	0.45075	-0.001526	0.000305	-0.017395
33.536	-0.024567	-0.042267	-0.021667	0.009003	-0.014038	-0.005035	0.095062	0.014954	-0.055847	0.1593	-0.011902	-0.03418	-0.086365	0.027161	-0.042267	0.075531	0.018616	-0.11276	0.86777	0.044708	0.20279	0.10437	-0.060425	-0.051422	0.010376	0.002594	-0.15625	-0.010529	0.1651	-0.011444	-0.003052	-0.017395
33.537	0.041809	-0.058746	-0.018616	0.008545	-0.001831	-0.007019	0.074463	0.018616	-0.04364	0.053253	-0.058289	-0.040588	-0.028229	0.15823	-0.028381	-0.037231	0.031128	-0.12512	0.69351	0.038147	0.16174	0.13184	-0.037231	-0.02594	0.017548	0.00946	-0.11124	-0.011139	-0.051422	0.025177	0	-0.010071
33.538	0.019379	-0.069275	-0.058899	-0.005798	0.031281	-0.028381	0.016937	0.018921	-0.034332	-0.047455	-0.052795	-0.022278	0.067596	0.000916	-0.026398	0.006561	-0.007782	-0.10864	-0.19852	0.019684	-0.029907	0.14587	-0.028229	-0.041199	0.021667	0.007782	0.05661	0.000458	-0.068512	-0.007629	-0.00061	-0.013123
33.539	-0.0354	-0.048065	-0.067444	0.020752	0.020294	-0.010071	-0.077209	0.006409	-0.013885	-0.061646	-0.026093	-0.020752	0.14954	-0.030212	-0.058899	0.045471	-0.024719	-0.085144	-0.84747	-0.055084	-0.29159	0.29816	-0.023956	0.019989	0.005951	0.013275	0.10895	-0.01297	0.21194	-0.010681	0.002136	-0.012665
33.54	-0.03479	-0.033264	-0.058594	0.024719	0.016022	0.002747	-0.14877	0.019989	0.001831	-0.062866	0.014038	-0.010834	0.15106	-0.029602	-0.075684	0.025482	-0.01297	-0.052795	-1.2059	0.00061	-0.20447	0.33203	0.002289	0.023499	0.003662	0.007782	0.11261	-0.006256	0.30716	0.017242	0.000458	-0.010376
33.541	0.03418	-0.025787	-0.05188	0.009308	0.016632	-0.00412	-0.14526	0.01709	-0.022583	-0.032349	0.047302	-0.015411	0.091705	0.088501	0.052643	0.031891	-0.017853	-0.037842	-0.43427	0.041504	-0.13809	0.32745	-0.018311	0.012512	0.007324	0.00351	0.088654	-0.001678	-0.10071	0.010681	0.001373	-0.000458
33.542	-0.00351	-0.024109	-0.051422	0.009003	0.013123	-0.003357	-0.15427	0.021362	0.027313	-0.018463	0.066223	-0.016632	0.029449	0.076599	0.33402	-0.001678	-0.02121	-0.13062	0.35996	-0.010681	-0.00824	0.29724	-0.047607	0.05188	0.018005	0.014954	0.061493	-0.003815	-0.43839	-0.014801	-0.005493	-0.006714
33.543	0.004272	0.005951	-0.053406	0.003357	0.006104	-0.015106	-0.016174	-0.001221	0.034027	-0.012665	0.069733	-0.013428	-0.00946	0.057373	-0.24536	-0.001221	-0.025787	-0.11765	0.84824	0.067139	0.33005	0.21957	-0.047455	0.010071	0.00885	0.005035	0.036926	-0.003204	-0.22675	-0.001678	-0.001068	-0.005341
33.544	0.013428	-0.050507	-0.029755	0.008087	0.002747	-0.006409	0.030518	-0.002289	0.011749	-0.003815	-0.062103	-0.022125	-0.040894	0.12985	-0.027771	-0.014801	-0.02594	-0.11078	0.78384	0.11383	0.075836	0.15488	-0.050507	0.001068	0.007782	0.005188	0.026093	-0.009766	-0.11826	0.014954	-0.003052	0.000763
33.545	0.002747	-0.054779	-0.021057	-0.0177	-0.003357	-0.002594	0.089874	-0.000305	0.017548	0.001373	-0.033569	-0.019684	0.014496	0.20065	0.99716	-0.000916	-0.011597	-0.15289	0.46234	-0.00351	-0.041656	0.14938	-0.041046	-0.03891	-0.011597	0.002136	0.04715	-0.008392	-0.063477	-0.010834	0.008087	-0.003967
